HIERARCHY
ROOT Hips
{
  OFFSET 0.000000 0.000000 0.000000
  CHANNELS 6 Xposition Yposition Zposition Zrotation Yrotation Xrotation
  JOINT Spine
  {
    OFFSET 0.001008 1.818775 -0.004121
    CHANNELS 3 Zrotation Yrotation Xrotation
    JOINT Spine1
    {
      OFFSET 0.003221 1.819335 -0.039618
      CHANNELS 3 Zrotation Yrotation Xrotation
      JOINT Spine2
      {
        OFFSET 0.002434 1.813855 -0.036328
        CHANNELS 3 Zrotation Yrotation Xrotation
        JOINT Neck
        {
          OFFSET -0.137954 1.661923 0.226496
          CHANNELS 3 Zrotation Yrotation Xrotation
          JOINT Head
          {
            OFFSET 0.041086 1.725018 -0.167835
            CHANNELS 3 Zrotation Yrotation Xrotation
            End Site
            {
              OFFSET 0 0 0
            }
          }
        }
        JOINT LeftShoulder
        {
          OFFSET 3.254464 1.419826 0.321059
          CHANNELS 3 Zrotation Yrotation Xrotation
          JOINT LeftArm
          {
            OFFSET 4.054440 -0.000000 -0.000000
            CHANNELS 3 Zrotation Yrotation Xrotation
            JOINT LeftForeArm
            {
              OFFSET 3.212050 -0.000000 0.000000
              CHANNELS 3 Zrotation Yrotation Xrotation
              JOINT LeftHand
              {
                OFFSET 0.707407 -0.000000 0.000000
                CHANNELS 3 Zrotation Yrotation Xrotation
                JOINT LeftHandIndex1
                {
                  OFFSET 0.570330 -0.000000 0.000000
                  CHANNELS 3 Zrotation Yrotation Xrotation
                  End Site
                  {
                    OFFSET 0 0 0
                  }
                }
              }
            }
          }
        }
        JOINT RightShoulder
        {
          OFFSET -3.300070 1.254854 0.339466
          CHANNELS 3 Zrotation Yrotation Xrotation
          JOINT RightArm
          {
            OFFSET -3.740480 -0.000000 -0.000000
            CHANNELS 3 Zrotation Yrotation Xrotation
            JOINT RightForeArm
            {
              OFFSET -3.160300 -0.000000 0.000000
              CHANNELS 3 Zrotation Yrotation Xrotation
              JOINT RightHand
              {
                OFFSET -0.717028 -0.000000 0.000000
                CHANNELS 3 Zrotation Yrotation Xrotation
                JOINT RightHandIndex1
                {
                  OFFSET -0.578086 -0.000000 0.000000
                  CHANNELS 3 Zrotation Yrotation Xrotation
                  End Site
                  {
                    OFFSET 0 0 0
                  }
                }
              }
            }
          }
        }
      }
    }
  }
  JOINT LeftUpLeg
  {
    OFFSET 2.339509 -6.427754 0.000000
    CHANNELS 3 Zrotation Yrotation Xrotation
    JOINT LeftLeg
    {
      OFFSET 2.305232 -6.333578 0.000000
      CHANNELS 3 Zrotation Yrotation Xrotation
      JOINT LeftFoot
      {
        OFFSET 0.053877 -0.148566 1.538626
        CHANNELS 3 Zrotation Yrotation Xrotation
        JOINT LeftToeBase
        {
          OFFSET 0.000000 -0.000000 0.792077
          CHANNELS 3 Zrotation Yrotation Xrotation
          End Site
          {
            OFFSET 0 0 0
          }
        }
      }
    }
  }
  JOINT RightUpLeg
  {
    OFFSET -2.265339 -6.223972 0.000000
    CHANNELS 3 Zrotation Yrotation Xrotation
    JOINT RightLeg
    {
      OFFSET -2.270366 -6.237786 0.000000
      CHANNELS 3 Zrotation Yrotation Xrotation
      JOINT RightFoot
      {
        OFFSET -0.095432 -0.262197 1.626155
        CHANNELS 3 Zrotation Yrotation Xrotation
        JOINT RightToeBase
        {
          OFFSET -0.000000 -0.000000 0.839909
          CHANNELS 3 Zrotation Yrotation Xrotation
          End Site
          {
            OFFSET 0 0 0
          }
        }
      }
    }
  }
}
MOTION
Frames: 5
Frame Time: 0.00833333
-8.064430 16.952200 -2.366780 -2.942110 -9.602670 5.770390 -24.576000 -22.206300 -1.576360 0.000000 0.000000 5.873000 -18.157300 0.000000 11.363900 0.000000 0.000000 -20.920000 21.652000 5.422430 2.627730 0.000000 0.000000 26.773400 4.598960 0.000000 -19.331300 0.000000 0.000000 -62.632800 -0.423337 2.048000 -2.558290 -0.578553 2.757310 0.705491 -0.235022 1.374200 2.164880 1.059220 8.153940 -22.955400 2.236690 5.098160 12.600000 0.000000 0.000000 0.000000 71.646200 11.029000 -25.121000 0.000000 0.000000 19.144300 -20.910600 0.000000 -16.762400 0.000000 0.000000 7.125020 0.000000 0.000000 0.000000 -68.719000 -22.580300 -38.742100 0.000000 0.000000 32.912900 16.540500 0.000000 -30.291300 0.000000 0.000000 7.125020
-8.060200 16.950000 -2.355170 -2.852340 -9.605700 5.759270 -24.759000 -22.278900 -1.519850 0.000000 0.000000 5.911700 -18.678900 0.000000 10.822100 0.000000 0.000000 -18.060100 21.117300 4.511130 2.090770 0.000000 0.000000 27.694400 3.834650 0.000000 -19.126300 0.000000 0.000000 -61.237600 -0.486794 2.048380 -2.704220 -0.593362 2.761700 0.717563 -0.208523 1.375310 2.256970 0.717970 8.164490 -22.840200 2.416220 5.133230 12.468400 -0.000000 0.000000 0.000000 71.495900 11.538000 -25.148800 0.000000 0.000000 18.899200 -14.513300 0.000000 -23.707800 0.000000 0.000000 7.125020 -0.000000 0.000000 0.000000 -68.665600 -22.733100 -38.657400 0.000000 0.000000 32.716700 14.813700 0.000000 -29.139200 0.000000 0.000000 7.125020
-8.053270 16.947400 -2.348080 -2.812600 -9.534670 5.785700 -24.794700 -22.136000 -1.611330 0.000000 0.000000 6.008080 -18.802200 0.000000 10.329400 0.000000 0.000000 -16.550500 20.652100 3.640560 1.477170 0.000000 0.000000 28.670800 2.490450 0.000000 -19.134300 0.000000 0.000000 -57.760800 -0.511887 2.030000 -2.778580 -0.575248 2.737990 0.673266 -0.175193 1.363020 2.251110 0.801082 8.273000 -22.762600 2.442170 5.198280 12.478700 0.000000 -0.000000 0.000000 71.394600 12.043200 -25.261400 0.000000 0.000000 18.696600 -15.790400 0.000000 -25.194700 0.000000 0.000000 7.125020 0.000000 -0.000000 0.000000 -68.591200 -22.783000 -38.686400 0.000000 0.000000 32.635300 12.902200 0.000000 -27.697100 0.000000 0.000000 7.125020
-8.044770 16.943400 -2.341110 -2.964330 -9.456530 5.774040 -24.602300 -21.862700 -1.669110 0.000000 0.000000 6.110040 -18.707800 0.000000 10.447300 0.000000 0.000000 -17.339400 20.060000 1.944450 0.857124 0.000000 0.000000 29.727000 0.613723 0.000000 -19.183800 0.000000 0.000000 -52.601400 -0.271510 2.035260 -2.810960 -0.541571 2.735850 0.669255 -0.273679 1.364960 2.274750 1.311350 8.547350 -22.636000 2.344320 5.339910 12.545500 -0.000000 -0.000000 0.000000 71.411900 12.152500 -25.335200 0.000000 0.000000 18.537300 -15.251100 0.000000 -24.238100 0.000000 0.000000 7.125020 -0.000000 -0.000000 0.000000 -68.533800 -22.835000 -38.717700 0.000000 0.000000 32.639300 10.968000 0.000000 -26.115500 0.000000 0.000000 7.125020
-8.039860 16.938500 -2.333080 -3.100120 -9.445460 5.773090 -24.463400 -21.730500 -1.689140 0.000000 0.000000 6.192350 -18.333900 0.000000 11.197500 0.000000 0.000000 -20.176800 19.866300 1.110210 0.431653 0.000000 0.000000 30.463400 0.548400 0.000000 -19.161400 0.000000 0.000000 -50.680200 -0.094577 2.046730 -2.887390 -0.501355 2.744190 0.672060 -0.327700 1.371190 2.326920 1.547050 8.538140 -22.631400 2.186620 5.317400 12.578000 0.000000 -0.000000 0.000000 71.411500 12.190600 -25.465000 0.000000 0.000000 18.492600 -14.548100 0.000000 -23.255700 0.000000 0.000000 7.125020 0.000000 -0.000000 0.000000 -68.394100 -22.897000 -38.739800 0.000000 0.000000 32.655400 8.985980 0.000000 -24.351800 0.000000 0.000000 7.125020
